<?xml version="1.0" standalone="no"?>
<svg xmlns="http://www.w3.org/2000/svg" viewBox="0 0 232.904 53" width="232.904" height="53"><rect fill="none" stroke="#6D8299" stroke-width="3" width="229.904" height="50" x="1.5" y="1.5"></rect><g fill="#6D8299" color="#6D8299" transform="translate(12, 12.001) scale(0.29)"><svg width="100.0" height="100.0" x="0.0" y="0.0" viewBox="0 0 100 100"><path d="M22.5,57.5c2.769,0,5.186-1.512,6.485-3.75h12.029c1.299,2.238,3.716,3.75,6.485,3.75c4.136,0,7.5-3.364,7.5-7.5  s-3.364-7.5-7.5-7.5c-2.769,0-5.186,1.512-6.485,3.75H28.985c-0.658-1.133-1.602-2.077-2.735-2.735V26.25h4.765  C32.314,28.488,34.731,30,37.5,30c4.136,0,7.5-3.364,7.5-7.5S41.636,15,37.5,15c-2.769,0-5.186,1.512-6.485,3.75H22.5l-3.75,3.75  v21.015C16.512,44.814,15,47.231,15,50C15,54.136,18.364,57.5,22.5,57.5z M47.5,47.5c1.378,0,2.5,1.122,2.5,2.5s-1.122,2.5-2.5,2.5  S45,51.378,45,50S46.122,47.5,47.5,47.5z M37.5,20c1.378,0,2.5,1.122,2.5,2.5S38.878,25,37.5,25S35,23.878,35,22.5  S36.122,20,37.5,20z M22.5,47.5c1.378,0,2.5,1.122,2.5,2.5s-1.122,2.5-2.5,2.5S20,51.378,20,50S21.122,47.5,22.5,47.5z"></path><path d="M81.25,43.515V22.5l-3.75-3.75h-8.515C67.686,16.512,65.269,15,62.5,15c-4.136,0-7.5,3.364-7.5,7.5s3.364,7.5,7.5,7.5  c2.769,0,5.186-1.512,6.485-3.75h4.765v17.265C71.512,44.814,70,47.231,70,50c0,4.136,3.364,7.5,7.5,7.5S85,54.136,85,50  C85,47.231,83.488,44.814,81.25,43.515z M62.5,25c-1.378,0-2.5-1.122-2.5-2.5s1.122-2.5,2.5-2.5s2.5,1.122,2.5,2.5  S63.878,25,62.5,25z M77.5,52.5c-1.378,0-2.5-1.122-2.5-2.5s1.122-2.5,2.5-2.5S80,48.622,80,50S78.878,52.5,77.5,52.5z"></path><path d="M77.5,67.5c-2.769,0-5.186,1.512-6.485,3.75H53.985c-1.299-2.238-3.716-3.75-6.485-3.75s-5.186,1.512-6.485,3.75H28.985  c-1.299-2.238-3.716-3.75-6.485-3.75c-4.136,0-7.5,3.364-7.5,7.5s3.364,7.5,7.5,7.5c2.769,0,5.186-1.512,6.485-3.75h12.029  c1.299,2.238,3.716,3.75,6.485,3.75s5.186-1.512,6.485-3.75h17.029c1.299,2.238,3.716,3.75,6.485,3.75c4.136,0,7.5-3.364,7.5-7.5  S81.636,67.5,77.5,67.5z M22.5,77.5c-1.378,0-2.5-1.122-2.5-2.5s1.122-2.5,2.5-2.5S25,73.622,25,75S23.878,77.5,22.5,77.5z   M47.5,77.5c-1.378,0-2.5-1.122-2.5-2.5s1.122-2.5,2.5-2.5S50,73.622,50,75S48.878,77.5,47.5,77.5z M77.5,77.5  c-1.378,0-2.5-1.122-2.5-2.5s1.122-2.5,2.5-2.5S80,73.622,80,75S78.878,77.5,77.5,77.5z"></path><path d="M5,95h90V5H5V95z M10,10h80v80H10V10z"></path></svg></g><line x1="51.5" y1="0" x2="51.5" y2="100%" stroke="#6D8299" stroke-width="3"></line><path fill="#6D8299" fill-rule="nonzero" d="M4.10 20.74L0 20.74L0 0.12L4.10 0.12L4.10 7.49L6.05 7.49L6.05 0.12L10.15 0.12L10.15 20.74L6.05 20.74L6.05 11.38L4.10 11.38L4.10 20.74ZM17.88 20.74L13.75 20.74L13.75 4.08L11.30 4.08L11.30 0.12L20.33 0.12L20.33 4.08L17.88 4.08L17.88 20.74ZM25.20 20.74L21.48 20.74L21.48 0.12L27.77 0.12L29.50 12.70L31.22 0.12L37.56 0.12L37.56 20.74L33.79 20.74L33.79 5.88L31.42 20.74L27.72 20.74L25.20 5.88L25.20 20.74ZM47.76 20.74L39.38 20.74L39.38 0.12L43.51 0.12L43.51 17.23L47.76 17.23L47.76 20.74ZM59.74 20.93Q56.86 20.93 55.58 19.46Q54.31 18 54.31 14.98L54.31 14.98L54.31 9.55Q54.31 7.27 54.80 5.84Q55.30 4.42 56.46 3.70Q57.62 2.98 59.69 2.98L59.69 2.98Q61.94 2.98 63.36 4.15Q64.78 5.33 64.78 7.44L64.78 7.44L64.78 10.13L60.50 10.13L60.50 7.66Q60.50 6.96 60.31 6.59Q60.12 6.22 59.57 6.22L59.57 6.22Q58.54 6.22 58.54 7.68L58.54 7.68L58.54 16.20Q58.54 16.80 58.79 17.22Q59.04 17.64 59.54 17.64L59.54 17.64Q60.05 17.64 60.30 17.23Q60.55 16.82 60.53 16.18L60.53 16.18L60.50 13.22L64.78 13.22L64.78 16.30Q64.78 18.46 63.37 19.69Q61.97 20.93 59.74 20.93L59.74 20.93ZM71.35 20.93Q66.10 20.93 66.10 15.48L66.10 15.48L66.10 8.42Q66.10 5.93 67.50 4.45Q68.90 2.98 71.35 2.98L71.35 2.98Q73.80 2.98 75.20 4.45Q76.61 5.93 76.61 8.42L76.61 8.42L76.61 15.48Q76.61 20.93 71.35 20.93L71.35 20.93ZM71.35 17.69Q71.86 17.69 72.10 17.33Q72.34 16.97 72.34 16.34L72.34 16.34L72.34 7.75Q72.34 6.22 71.35 6.22L71.35 6.22Q70.37 6.22 70.37 7.75L70.37 7.75L70.37 16.34Q70.37 16.97 70.61 17.33Q70.85 17.69 71.35 17.69L71.35 17.69ZM78.17 20.74L78.17 3.17L82.37 3.17L82.37 5.40Q82.63 4.32 83.28 3.65Q83.93 2.98 85.01 2.98L85.01 2.98Q86.78 2.98 87.64 4.07Q88.49 5.16 88.49 7.18L88.49 7.18L88.49 20.74L84.36 20.74L84.36 7.61Q84.36 7.03 84.13 6.62Q83.90 6.22 83.42 6.22L83.42 6.22Q82.78 6.22 82.57 6.80Q82.37 7.39 82.37 8.38L82.37 8.38L82.37 20.74L78.17 20.74ZM100.42 20.93Q99.00 20.93 97.85 20.38Q96.70 19.82 96.04 18.76Q95.38 17.69 95.38 16.18L95.38 16.18L95.38 11.02L99.43 11.02L99.43 15.94Q99.43 16.49 99.66 16.81Q99.89 17.14 100.37 17.14L100.37 17.14Q100.82 17.14 101.05 16.84Q101.28 16.54 101.28 15.98L101.28 15.98L101.28 0.12L105.43 0.12L105.43 15.58Q105.43 17.18 104.80 18.40Q104.16 19.61 103.02 20.27Q101.88 20.93 100.42 20.93L100.42 20.93ZM106.94 20.74L106.94 0L111.26 0L111.26 4.90Q111.94 2.98 113.83 2.98L113.83 2.98Q115.61 2.98 116.52 4.10Q117.43 5.23 117.43 7.20L117.43 7.20L117.43 20.74L113.23 20.74L113.23 7.46Q113.23 6.89 112.97 6.53Q112.70 6.17 112.20 6.17L112.20 6.17Q111.77 6.17 111.52 6.54Q111.26 6.91 111.26 7.44L111.26 7.44L111.26 20.74L106.94 20.74ZM124.18 20.93Q118.92 20.93 118.92 15.48L118.92 15.48L118.92 8.42Q118.92 5.93 120.32 4.45Q121.73 2.98 124.18 2.98L124.18 2.98Q126.62 2.98 128.03 4.45Q129.43 5.93 129.43 8.42L129.43 8.42L129.43 15.48Q129.43 20.93 124.18 20.93L124.18 20.93ZM124.18 17.69Q124.68 17.69 124.92 17.33Q125.16 16.97 125.16 16.34L125.16 16.34L125.16 7.75Q125.16 6.22 124.18 6.22L124.18 6.22Q123.19 6.22 123.19 7.75L123.19 7.75L123.19 16.34Q123.19 16.97 123.43 17.33Q123.67 17.69 124.18 17.69L124.18 17.69ZM134.18 20.93Q132.14 20.93 131.39 19.57Q130.63 18.22 130.63 15.70L130.63 15.70Q130.63 13.63 131.17 12.53Q131.71 11.42 132.67 10.91Q133.63 10.39 135.60 9.77L135.60 9.77L136.75 9.38L136.75 9.34L136.75 7.58Q136.75 6.89 136.48 6.52Q136.20 6.14 135.82 6.14L135.82 6.14Q135.48 6.14 135.23 6.46Q134.98 6.77 134.98 7.30L134.98 7.30L134.98 8.35L130.90 8.35L130.90 7.78Q130.90 5.18 132.11 4.08Q133.32 2.98 136.06 2.98L136.06 2.98Q138.24 2.98 139.61 4.12Q140.98 5.26 140.98 7.34L140.98 7.34L140.98 20.74L136.80 20.74L136.80 18.65Q136.49 19.73 135.80 20.33Q135.12 20.93 134.18 20.93L134.18 20.93ZM135.84 17.66Q136.32 17.66 136.52 17.27Q136.73 16.87 136.73 16.30L136.73 16.30L136.73 11.40Q135.79 11.76 135.35 12.31Q134.90 12.86 134.90 13.85L134.90 13.85L134.90 16.10Q134.90 17.66 135.84 17.66L135.84 17.66ZM142.58 20.74L142.58 3.17L146.78 3.17L146.78 5.40Q147.05 4.32 147.70 3.65Q148.34 2.98 149.42 2.98L149.42 2.98Q151.20 2.98 152.05 4.07Q152.90 5.16 152.90 7.18L152.90 7.18L152.90 20.74L148.78 20.74L148.78 7.61Q148.78 7.03 148.55 6.62Q148.32 6.22 147.84 6.22L147.84 6.22Q147.19 6.22 146.99 6.80Q146.78 7.39 146.78 8.38L146.78 8.38L146.78 20.74L142.58 20.74Z" transform="translate(65 16.132)"></path></svg>